<?xml version="1.0" standalone="no"?>
<!DOCTYPE svg PUBLIC "-//W3C//DTD SVG 1.1//EN" "http://www.w3.org/Graphics/SVG/1.1/DTD/svg11.dtd" >
<svg xmlns="http://www.w3.org/2000/svg">
<metadata>Generated by IcoMoon</metadata>
<defs>
<font id="icons" horiz-adv-x="1024">
<font-face units-per-em="1024" ascent="960" descent="-64" />
<missing-glyph horiz-adv-x="1024" />
<glyph unicode="&#x20;" horiz-adv-x="512" d="" />
<glyph unicode="&#xe900;" glyph-name="apartment" d="M725.333 490.667v256c0 46.933-38.4 85.333-85.333 85.333h-256c-46.933 0-85.333-38.4-85.333-85.333v-85.333h-85.333c-46.933 0-85.333-38.4-85.333-85.333v-426.667c0-46.933 38.4-85.333 85.333-85.333h256v170.667h85.333v-170.667h256c46.933 0 85.333 38.4 85.333 85.333v256c0 46.933-38.4 85.333-85.333 85.333h-85.333zM298.667 149.333h-85.333v85.333h85.333v-85.333zM298.667 320h-85.333v85.333h85.333v-85.333zM298.667 490.667h-85.333v85.333h85.333v-85.333zM469.333 320h-85.333v85.333h85.333v-85.333zM469.333 490.667h-85.333v85.333h85.333v-85.333zM469.333 661.333h-85.333v85.333h85.333v-85.333zM640 320h-85.333v85.333h85.333v-85.333zM640 490.667h-85.333v85.333h85.333v-85.333zM640 661.333h-85.333v85.333h85.333v-85.333zM810.667 149.333h-85.333v85.333h85.333v-85.333zM810.667 320h-85.333v85.333h85.333v-85.333z" />
<glyph unicode="&#xe901;" glyph-name="arrow" d="M988.961 623.010c0.037 16.176-5.632 31.852-16.021 44.308-5.846 7.010-13.023 12.805-21.132 17.053s-16.98 6.864-26.1 7.7c-9.124 0.836-18.325-0.125-27.075-2.828s-16.877-7.095-23.917-12.925l-373.398-310.16-374.093 299.083c-7.126 5.751-15.326 10.045-24.126 12.637s-18.031 3.429-27.159 2.464c-9.128-0.965-17.974-3.713-26.030-8.087s-15.162-10.286-20.911-17.398c-6.342-7.163-11.126-15.552-14.051-24.639s-3.929-18.678-2.947-28.169c0.981-9.492 3.926-18.679 8.649-26.985s11.123-15.554 18.798-21.285l417.982-334.392c12.465-10.182 28.1-15.749 44.237-15.749s31.771 5.567 44.236 15.749l417.978 346.161c8.434 6.946 15.099 15.768 19.456 25.752s6.284 20.848 5.623 31.711z" />
<glyph unicode="&#xe902;" glyph-name="arrow-right" d="M328.657 959.868c-16.947 0.033-33.37-5.906-46.419-16.786-7.344-6.127-13.415-13.651-17.865-22.142s-7.191-17.782-8.067-27.341c-0.876-9.559 0.131-19.198 2.963-28.365s7.433-17.681 13.54-25.056l324.93-391.178-313.325-391.905c-6.025-7.468-10.524-16.055-13.239-25.278s-3.592-18.885-2.581-28.453c1.011-9.56 3.89-18.827 8.472-27.268s10.776-15.887 18.227-21.906c7.504-6.641 16.292-11.659 25.813-14.724s19.567-4.111 29.511-3.087c9.943 1.031 19.568 4.118 28.27 9.062 8.703 4.952 16.294 11.652 22.299 19.697l350.315 437.883c10.668 13.059 16.5 29.439 16.5 46.343s-5.832 33.284-16.5 46.343l-362.644 437.886c-7.276 8.832-16.519 15.814-26.978 20.379s-21.841 6.584-33.221 5.895z" />
<glyph unicode="&#xe903;" glyph-name="bath" horiz-adv-x="1056" d="M865.251 449.427h-674.502c-26.563 0-48.179-21.613-48.179-48.176s21.616-48.179 48.179-48.179h674.502c26.563 0 48.179 21.616 48.179 48.179s-21.616 48.176-48.179 48.176zM869.683 384.579c-8.704 2.442-17.443-2.506-19.85-11.050l-1.254-4.4h-641.13l-1.284 4.4c-2.409 8.544-11.209 13.427-19.85 11.050-8.544-2.438-13.459-11.338-11.016-19.85l44.26-154.941c13.714-48.019 58.168-81.552 108.083-81.552h400.685c49.942 0 94.365 33.533 108.080 81.552l44.259 154.941c2.474 8.512-2.474 17.411-10.982 19.85zM327.67 192.477c-21.39 0-40.469 14.358-46.315 34.947l-20.845 73.037c-2.441 8.544 2.505 17.411 11.016 19.85 8.607 2.442 17.441-2.534 19.85-11.050l20.845-73.037c1.992-6.842 8.319-11.661 15.449-11.661 8.864 0 16.061-7.194 16.061-16.061 0-8.864-7.194-16.026-16.061-16.026zM358.509 158.688c-7.933 3.885-17.539 0.768-21.552-7.197l-32.12-64.237c-3.951-7.933-0.739-17.571 7.195-21.555 2.344-1.155 4.786-1.702 7.195-1.702 5.876 0 11.531 3.245 14.356 8.896l32.118 64.24c3.952 7.936 0.739 17.571-7.194 21.555zM751.162 87.222l-32.118 64.237c-3.981 7.968-13.619 11.146-21.552 7.197-7.933-3.984-11.146-13.619-7.197-21.552l32.118-64.24c2.829-5.619 8.48-8.864 14.358-8.864 2.41 0 4.851 0.547 7.197 1.67 7.933 3.984 11.146 13.619 7.194 21.552zM787.683 832c-16.381 0-31.798-6.391-43.392-17.987l-50.973-50.973c-6.262-6.263-6.262-16.445 0-22.708s16.445-6.263 22.707 0l50.973 50.941c5.491 5.524 12.848 8.576 20.845 8.576 16.125 0 29.229-13.105 29.229-29.228v-337.251c0-8.864 7.194-16.061 16.061-16.061 8.864 0 16.058 7.197 16.090 16.093v337.25c0.003 33.821-27.491 61.348-61.539 61.348zM732.083 746.98l-32.118 32.118c-3.661 3.662-8.768 5.364-13.971 4.497l-80.298-13.169c-5.91-0.964-10.762-5.139-12.656-10.792s-0.448-11.948 3.728-16.22l96.355-99.248c3.053-3.18 7.261-4.884 11.501-4.884 1.507 0 3.050 0.224 4.56 0.675 5.715 1.67 10.051 6.391 11.21 12.238l16.058 80.297c1.059 5.236-0.579 10.666-4.368 14.487zM523.28 637.424c-6.266 6.262-16.448 6.262-22.71 0l-32.118-32.118c-6.262-6.266-6.262-16.448 0-22.71 3.149-3.114 7.258-4.691 11.37-4.691s8.224 1.574 11.341 4.691l32.118 32.118c6.262 6.266 6.262 16.445 0 22.71zM587.517 573.184c-6.266 6.266-16.445 6.266-22.71 0l-32.118-32.118c-6.262-6.262-6.262-16.445 0-22.707 3.149-3.117 7.258-4.691 11.37-4.691s8.224 1.574 11.341 4.691l32.118 32.118c6.262 6.262 6.262 16.445 0 22.707zM619.635 669.543c-6.262 6.263-16.445 6.263-22.707 0l-32.118-32.119c-6.266-6.262-6.266-16.445 0-22.707 3.149-3.117 7.258-4.691 11.37-4.691s8.221 1.574 11.338 4.691l32.118 32.117c6.266 6.263 6.266 16.446 0 22.709z" />
<glyph unicode="&#xe904;" glyph-name="bed" d="M761.6 487.386c72.682 0 134.4-60.563 134.4-137.846v-118.154h-57.6v-39.386h-38.4v39.386h-576v-39.386h-38.4v39.386h-57.6v118.154c0 74.544 59.629 137.846 134.4 137.846h499.2zM723.2 704c51.626 0 96.013-42.567 96-98.461l0.013-94.083c-17.459 9.818-36.995 15.312-57.613 15.312l-38.4 0.022c0 33.725-26.925 59.056-57.6 59.056h-115.2c-14.752 0-28.208-5.686-38.397-15.040-10.179 9.344-23.642 15.040-38.403 15.040h-115.2c-31.805 0-57.589-26.438-57.6-59.056l-38.4-0.022c-20.612 0-40.141-5.491-57.6-15.302v94.074c0 52.947 41.406 98.461 96 98.461h422.4zM473.6 546.47c10.419 0 19.2-9.846 19.2-19.702l-153.6 0.022c0 12.048 9.354 19.67 19.2 19.67l115.2 0.010zM665.6 546.33c10.864 0.141 19.19-9.45 19.2-19.539h-153.6c0 12.218 9.354 19.67 19.2 19.67l115.2-0.131z" />
<glyph unicode="&#xe905;" glyph-name="email" d="M810.667 789.333h-597.333c-33.948 0-66.505-13.486-90.51-37.49s-37.49-56.562-37.49-90.51v-426.667c0-33.946 13.486-66.505 37.49-90.509s56.562-37.491 90.51-37.491h597.333c33.946 0 66.505 13.487 90.509 37.491s37.491 56.563 37.491 90.509v426.667c0 33.948-13.487 66.505-37.491 90.51s-56.563 37.49-90.509 37.49zM810.667 704l-277.333-190.72c-6.485-3.746-13.845-5.717-21.333-5.717s-14.848 1.971-21.333 5.717l-277.333 190.72h597.333z" />
<glyph unicode="&#xe906;" glyph-name="facebook" d="M394.195 128v300.307h-106.195v108.125h106.195v92.352c0 72.572 62.73 139.216 207.274 139.216 58.522 0 101.798-4.195 101.798-4.195l-3.411-100.97c0 0-44.134 0.321-92.294 0.321-52.125 0-60.474-17.962-60.474-47.773v-78.95h156.912l-6.829-108.125h-150.083v-300.307h-152.893z" />
<glyph unicode="&#xe907;" glyph-name="floor" horiz-adv-x="1056" d="M873.229 671.998h-139.392c-21.418 0-38.774-17.173-38.774-38.385v-99.648h-100.634c-21.424 0-38.778-17.165-38.778-38.381v-99.651h-100.637c-21.424 0-38.774-17.194-38.774-38.384v-104.451h-105.465c-10.291 0-20.152-4.042-27.42-11.232-7.274-7.194-11.354-17.002-11.354-27.152l0.012-80.31c0-21.235 17.363-38.406 38.773-38.406h562.443c21.424 0 38.771 17.171 38.771 38.406v499.21c0.003 21.212-17.347 38.385-38.771 38.385zM680.448 792.148c-10.288 10.285-27.142 10.483-37.686 0.476-170.982-162.4-333.647-321.021-490.951-474.384-5.005-4.88-7.811-11.507-7.811-18.39v-177.856c0-14.333 11.929-25.997 26.654-25.997 14.71 0 26.66 11.658 26.66 25.997v167.104c154.749 150.89 314.74 306.806 482.637 466.302 10.538 10.005 10.752 26.469 0.496 36.748z" />
<glyph unicode="&#xe908;" glyph-name="garage" d="M876.282 619.888l-320.858 199.976c-26.435 16.324-60.496 16.157-86.774-0.35l-321.188-199.795c-19.944-12.534-25.455-38.122-12.334-57.149 13.139-19.027 39.941-24.304 59.902-11.75l317.306 197.389 316.918-197.556c7.28-4.49 15.414-6.611 23.462-6.611 14.205 0 28.061 6.627 36.336 18.813 12.982 19.126 7.242 44.63-12.771 57.034zM774.742 359.901c-2.451 14.4-14.662 25.053-28.902 25.053h-16.365l-6.221 66.368c-6.64 70.979-64.102 124.678-133.661 124.678h-155.158c-69.574 0-127.020-53.715-133.677-124.678l-6.203-66.368h-16.383c-14.256 0-26.45-10.653-28.934-25.053l-24.355-141.558c-3.020-17.542 1.819-35.606 12.989-49.222 10.749-13.117 26.58-20.941 43.141-21.523v-23.504c0-33.274 26.011-60.093 58.5-60.093h18.48c32.458 0 58.858 26.819 58.858 60.093v23.123h190.49v-23.072c0-33.293 26.189-60.144 58.646-60.144h18.493c32.458 0 58.682 26.851 58.682 60.144v23.453c16.56 0.582 32.294 8.339 43.011 21.44 11.171 13.651 15.946 31.613 12.957 49.19l-24.387 141.674zM332.502 201.814c-27.393 0-49.605 22.755-49.605 50.87s22.212 50.886 49.605 50.886c27.405 0 49.635-22.755 49.635-50.886 0-28.115-22.23-50.87-49.635-50.87zM344.874 384.954l5.731 61.226c4.173 44.512 40.202 78.035 83.83 78.035h8.947v-19.242c0-16.698 12.941-29.997 29.21-29.997h78.845c16.269 0 29.437 13.299 29.437 29.997v19.226h8.72c43.629 0 79.658-33.526 83.814-78.038l5.747-61.222-334.282 0.016zM691.462 201.814c-27.392 0-49.603 22.755-49.603 50.87s22.211 50.886 49.603 50.886c27.408 0 49.635-22.755 49.635-50.886 0-28.115-22.227-50.87-49.635-50.87z" />
<glyph unicode="&#xe909;" glyph-name="house" d="M896 497.839v-369.839c-0.009-11.601-3.149-22.98-9.097-32.939-5.943-9.958-14.473-18.125-24.678-23.633-9.25-5.005-19.622-7.561-30.135-7.424h-192.23c-8.486 0-16.627 3.371-22.626 9.37-6.003 6.003-9.374 14.144-9.374 22.63v192.026c0 8.486-3.371 16.627-9.37 22.63-6.003 5.999-14.144 9.37-22.63 9.37h-128c-8.486 0-16.627-3.371-22.626-9.37-6.001-6.003-9.373-14.144-9.373-22.63v-192.026c0-8.486-3.372-16.627-9.373-22.63-6.001-5.999-14.141-9.37-22.627-9.37h-191.852c-9.073-0.026-18.047 1.89-26.319 5.619s-15.652 9.182-21.645 15.991c-10.521 12.169-16.227 27.763-16.044 43.849v368.38c0.007 8.917 1.873 17.732 5.481 25.89 3.607 8.154 8.875 15.466 15.468 21.47l319.971 290.932c11.755 10.766 27.115 16.738 43.055 16.74 15.936 0.001 31.3-5.968 43.055-16.732l320.026-290.944c6.592-6.005 11.857-13.317 15.467-21.475 3.605-8.154 5.47-16.969 5.478-25.886z" />
<glyph unicode="&#xe90a;" glyph-name="instagram" d="M511.914 554.714c-58.758 0-106.71-47.955-106.71-106.714s47.952-106.714 106.71-106.714c58.758 0 106.71 47.955 106.71 106.714s-47.952 106.714-106.71 106.714zM831.965 448c0 44.189 0.4 87.981-2.083 132.090-2.48 51.235-14.166 96.705-51.632 134.17-37.546 37.545-82.934 49.153-134.17 51.635-44.189 2.482-87.978 2.082-132.086 2.082-44.189 0-87.978 0.4-132.086-2.082-51.235-2.482-96.703-14.17-134.168-51.635-37.545-37.545-49.152-82.935-51.634-134.17-2.482-44.189-2.082-87.981-2.082-132.090s-0.4-87.981 2.082-132.090c2.482-51.235 14.169-96.704 51.634-134.17 37.545-37.546 82.933-49.155 134.168-51.635 44.189-2.483 87.978-2.083 132.086-2.083 44.189 0 87.978-0.4 132.086 2.083 51.235 2.48 96.704 14.17 134.17 51.635 37.546 37.546 49.152 82.934 51.632 134.17 2.563 44.109 2.083 87.901 2.083 132.090zM511.914 283.808c-90.861 0-164.189 73.331-164.189 164.192s73.328 164.192 164.189 164.192c90.861 0 164.189-73.331 164.189-164.192s-73.328-164.192-164.189-164.192zM682.826 580.57c-21.213 0-38.346 17.133-38.346 38.346 0 21.215 17.133 38.346 38.346 38.346 21.216 0 38.346-17.132 38.346-38.346 0.006-5.037-0.982-10.026-2.906-14.682-1.926-4.656-4.749-8.886-8.31-12.448s-7.792-6.384-12.448-8.31c-4.656-1.923-9.645-2.912-14.682-2.906z" />
<glyph unicode="&#xe90b;" glyph-name="location" d="M512 917.333c101.841 0 199.514-42.384 271.531-117.828 72.013-75.444 112.469-177.767 112.469-284.459 0-192.23-123.84-369.169-366.848-531.157-5.129-3.409-11.076-5.222-17.152-5.222s-12.023 1.813-17.152 5.222c-243.008 161.988-366.848 338.927-366.848 531.157 0 106.692 40.457 209.015 112.471 284.459s169.686 117.828 271.529 117.828zM512 649.141c-33.946 0-66.505-14.128-90.51-39.276s-37.49-59.256-37.49-94.819c0-35.567 13.486-69.675 37.49-94.822s56.564-39.275 90.51-39.275c33.946 0 66.505 14.127 90.509 39.275s37.491 59.255 37.491 94.822c0 35.563-13.487 69.67-37.491 94.819s-56.563 39.276-90.509 39.276z" />
<glyph unicode="&#xe90c;" glyph-name="phone" d="M357.734 854.221c22.404 6.755 46.447 5.633 68.124-3.18s39.683-24.784 51.019-45.256l3.84-7.629 33.843-75.315c10.287-22.86 13.623-48.239 9.6-72.982s-15.232-47.756-32.23-66.179l-6.758-6.758-53.453-49.818c-9.626-9.114-2.406-44.39 32.461-104.704 31.283-54.272 56.832-79.616 69.325-80.998h2.202l2.714 0.512 104.96 32.102c14.106 4.326 29.158 4.497 43.362 0.495 14.199-4.006 26.944-12.015 36.715-23.074l4.71-5.888 69.427-96.256c13.623-18.859 20.416-41.801 19.264-65.037-1.156-23.236-10.189-45.389-25.613-62.81l-6.246-6.451-27.802-26.317c-24.922-23.599-56.090-39.548-89.809-45.943-33.719-6.4-68.565-2.982-100.399 9.847-99.072 39.936-189.082 131.174-270.848 272.794-81.92 141.978-115.968 265.728-100.761 371.712 4.606 32.044 17.806 62.241 38.198 87.383s47.214 44.292 77.617 55.413l9.881 3.277 36.659 11.059z" />
<glyph unicode="&#xe90d;" glyph-name="popular" d="M834.099 490.801c-19.411 43.694-47.635 82.912-82.899 115.2l-29.101 26.7c-0.986 0.882-2.176 1.508-3.462 1.823s-2.63 0.308-3.917-0.017c-1.28-0.326-2.464-0.961-3.443-1.852s-1.728-2.008-2.176-3.254l-12.998-37.3c-8.102-23.4-23.002-47.3-44.102-70.8-1.402-1.5-3.002-1.9-4.102-2-1.094-0.1-2.797 0.1-4.301 1.5-1.395 1.2-2.099 3-1.997 4.8 3.699 60.2-14.3 128.1-53.7 202-32.6 61.4-77.9 109.3-134.5 142.7l-41.3 24.3c-5.4 3.2-12.3-1-12-7.3l2.2-48c1.5-32.8-2.3-61.8-11.3-85.9-11-29.5-26.801-56.9-47-81.5-14.058-17.096-29.991-32.559-47.5-46.1-42.17-32.417-76.458-73.953-100.3-121.5-23.782-47.961-36.171-100.765-36.2-154.3 0-47.197 9.3-92.9 27.7-135.997 17.767-41.498 43.406-79.162 75.5-110.906 32.4-32 70-57.197 111.9-74.694 43.4-18.202 89.4-27.405 136.9-27.405s93.5 9.203 136.902 27.302c41.792 17.395 79.802 42.771 111.898 74.701 32.403 32 57.798 69.402 75.501 110.899 18.374 42.982 27.795 89.254 27.699 135.999 0 48.8-9.997 96.2-29.901 140.9z" />
<glyph unicode="&#xe90e;" glyph-name="star" d="M936.404 568.364c-2.681 7.896-7.618 14.837-14.197 19.964-6.583 5.124-14.519 8.211-22.835 8.877l-243.244 19.328-105.26 233.002c-3.35 7.505-8.803 13.878-15.696 18.353-6.897 4.474-14.939 6.857-23.157 6.862-8.221 0.004-16.263-2.37-23.164-6.837s-12.357-10.835-15.718-18.335l-105.26-233.045-243.242-19.328c-8.173-0.648-15.985-3.636-22.504-8.606-6.519-4.974-11.467-11.717-14.253-19.427s-3.292-16.062-1.457-24.049c1.835-7.991 5.933-15.283 11.804-21.007l179.754-175.232-63.573-275.284c-1.93-8.335-1.312-17.053 1.776-25.029s8.501-14.844 15.538-19.705c7.037-4.86 15.374-7.497 23.926-7.559 8.553-0.066 16.929 2.439 24.039 7.194l232.32 154.88 232.32-154.88c7.267-4.824 15.839-7.311 24.561-7.117 8.722 0.19 17.174 3.046 24.225 8.188 7.047 5.138 12.354 12.314 15.203 20.557 2.853 8.247 3.109 17.167 0.735 25.563l-78.036 273.064 193.536 174.164c12.672 11.436 17.324 29.272 11.86 45.444z" />
<glyph unicode="&#xe90f;" glyph-name="time" d="M511.573 874.667c-235.52 0-426.24-191.147-426.24-426.667s190.72-426.667 426.24-426.667c235.947 0 427.093 191.147 427.093 426.667s-191.147 426.667-427.093 426.667zM682.667 277.333c-3.947-3.955-8.636-7.095-13.798-9.233-5.158-2.142-10.692-3.243-16.282-3.243s-11.123 1.101-16.282 3.243c-5.163 2.138-9.852 5.278-13.798 9.233l-140.373 140.373c-4.032 3.951-7.241 8.666-9.438 13.862-2.197 5.201-3.341 10.786-3.362 16.431v170.667c0 23.467 19.2 42.667 42.667 42.667s42.667-19.2 42.667-42.667v-153.173l128-128c16.64-16.64 16.64-43.52 0-60.16z" />
<glyph unicode="&#xe910;" glyph-name="twitter" d="M896 691.976c-28.243-12.497-58.976-21.491-90.637-24.994 32.87 20.030 57.482 51.674 69.222 88.994-30.842-18.82-64.63-32.017-99.862-39.006-14.726 16.149-32.538 29.014-52.323 37.794s-41.123 13.285-62.678 13.236c-87.222 0-157.366-72.521-157.366-161.513 0-12.499 1.475-24.995 3.875-37.021-130.598 7.008-247.077 71.007-324.514 168.996-14.11-24.721-21.504-52.869-21.413-81.515 0-56.047 27.781-105.468 70.146-134.534-24.966 1.011-49.347 8.048-71.161 20.544v-1.987c0-78.483 54.086-143.526 126.169-158.483-13.534-3.606-27.458-5.453-41.441-5.491-10.245 0-19.936 1.040-29.72 2.461 19.936-64 77.991-110.486 147.12-112-54.085-43.456-121.831-69.018-195.391-69.018-13.198 0-25.382 0.474-38.026 1.987 69.776-45.917 152.566-72.426 241.725-72.426 289.443 0 447.824 245.965 447.824 459.456 0 7.005 0 14.010-0.461 21.018 30.64 23.005 57.498 51.502 78.912 83.502z" />
<glyph unicode="&#xe911;" glyph-name="villa" d="M298.667 63.996h-128c-23.467 0-42.667 19.2-42.667 42.667v482.562c0 17.92 10.667 33.707 27.307 40.107l469.333 180.48c6.49 2.504 13.487 3.383 20.395 2.563 6.903-0.82 13.504-3.316 19.226-7.27s10.389-9.246 13.598-15.416c3.204-6.17 4.86-13.030 4.809-19.984v-236.375h-341.333c-23.467 0-42.667-19.2-42.667-42.667v-426.667zM725.333 447.996h-298.667c-23.467 0-42.667-19.2-42.667-42.667v-298.667c0-23.467 19.2-42.667 42.667-42.667h170.667v170.667c0 23.467 19.2 42.667 42.667 42.667s42.667-19.2 42.667-42.667v-170.667h170.667c23.467 0 42.667 19.2 42.667 42.667v341.333c0 46.933-38.4 85.333-85.333 85.333s-85.333-38.4-85.333-85.333z" />
<glyph unicode="&#xe912;" glyph-name="wallet" d="M819.2 652.801h-639.999v25.6l563.199 45.056v-45.056h76.8v76.8c0 56.32-45.619 95.846-101.325 87.91l-514.099-73.421c-55.757-7.987-101.376-60.57-101.376-116.89v-512.001c0-27.155 10.788-53.203 29.992-72.41 19.203-19.2 45.249-29.99 72.408-29.99h614.399c27.162 0 53.203 10.79 72.41 29.99 19.2 19.206 29.99 45.254 29.99 72.41v409.601c0 27.158-10.79 53.204-29.99 72.408-19.206 19.204-45.248 29.992-72.41 29.992zM742.4 294.093c-10.086 0.006-20.077 1.997-29.395 5.856-9.325 3.866-17.792 9.53-24.922 16.666s-12.787 15.606-16.646 24.929c-3.853 9.322-5.837 19.313-5.837 29.402 0.006 10.089 1.997 20.078 5.856 29.398 3.866 9.32 9.53 17.787 16.666 24.918s15.603 12.788 24.928 16.646c9.325 3.858 19.315 5.841 29.402 5.838 20.378-0.007 39.917-8.108 54.317-22.52s22.49-33.956 22.483-54.332c-0.006-20.375-8.109-39.914-22.522-54.317-14.413-14.4-33.952-22.49-54.33-22.483z" />
<glyph unicode="&#xe913;" glyph-name="arrow-nav" d="M426.383 746.591c-9.885 0.020-19.467-3.445-27.077-9.791-4.283-3.574-7.826-7.963-10.419-12.917-2.597-4.953-4.195-10.373-4.707-15.949s0.077-11.199 1.726-16.546c1.653-5.347 4.337-10.314 7.899-14.616l189.542-228.188-182.773-228.612c-3.515-4.356-6.137-9.366-7.72-14.746s-2.096-11.019-1.507-16.596c0.589-5.577 2.267-10.986 4.941-15.909s6.287-9.264 10.631-12.778c4.378-3.877 9.505-6.799 15.060-8.587 5.552-1.788 11.414-2.399 17.214-1.799s11.414 2.399 16.49 5.285c5.076 2.885 9.505 6.799 13.008 11.487l204.35 255.433c6.221 7.618 9.626 17.174 9.626 27.034 0 9.863-3.405 19.416-9.626 27.034l-211.544 255.434c-4.242 5.152-9.637 9.225-15.737 11.888s-12.741 3.841-19.379 3.438z" />
</font>
</defs>
</svg>
