<svg width="324" height="438" viewBox="0 0 324 438" fill="none" xmlns="http://www.w3.org/2000/svg">
<path opacity="0.3" fill-rule="evenodd" clip-rule="evenodd" d="M301.209 232.001C290.173 266.669 264.914 293.19 242.037 321.462C222.326 345.821 201.32 367.535 176.292 386.373C148.414 407.356 122.122 436.558 87.2732 437.946C52.3115 439.339 22.9507 413.407 -5.9325 393.634C-33.0888 375.044 -52.4251 349.427 -75.8344 326.286C-107.874 294.612 -163.167 276.642 -169.434 232.001C-175.493 188.845 -131.511 155.35 -104.647 121.061C-80.8375 90.6712 -54.2616 63.7547 -21.5625 43.2622C12.0146 22.2195 48.0816 -4.98061 87.2732 0.784627C126.401 6.54043 143.038 56.4992 179.088 72.7787C221.116 91.7576 283.755 65.5798 311.836 102.192C338.703 137.222 314.604 189.919 301.209 232.001Z" fill="#82FFE8"/>
</svg>
