<svg width="352" height="438" viewBox="0 0 352 438" fill="none" xmlns="http://www.w3.org/2000/svg">
<path opacity="0.3" fill-rule="evenodd" clip-rule="evenodd" d="M329.209 232.001C318.173 266.669 292.914 293.19 270.037 321.462C250.326 345.821 229.32 367.535 204.292 386.373C176.414 407.356 150.122 436.558 115.273 437.946C80.3115 439.339 50.9507 413.407 22.0675 393.634C-5.08885 375.044 -24.4251 349.427 -47.8344 326.286C-79.8736 294.612 -135.167 276.642 -141.434 232.001C-147.493 188.845 -103.511 155.35 -76.6469 121.061C-52.8376 90.6712 -26.2616 63.7547 6.43753 43.2622C40.0146 22.2195 76.0816 -4.98061 115.273 0.784627C154.401 6.54043 171.038 56.4992 207.088 72.7787C249.116 91.7576 311.755 65.5798 339.836 102.192C366.703 137.222 342.604 189.919 329.209 232.001Z" fill="#C8FF82"/>
</svg>
